<?xml version="1.0" standalone="no"?>
<!DOCTYPE svg PUBLIC "-//W3C//DTD SVG 20010904//EN"
 "http://www.w3.org/TR/2001/REC-SVG-20010904/DTD/svg10.dtd">
<svg version="1.0" xmlns="http://www.w3.org/2000/svg"
 width="180.000000pt" height="240.000000pt" viewBox="0 0 180.000000 240.000000"
 preserveAspectRatio="xMidYMid meet">
<metadata>
Created by potrace 1.15, written by Peter Selinger 2001-2017
</metadata>
<g transform="translate(0.000000,240.000000) scale(0.100000,-0.100000)"
fill="#000000" stroke="none">
<path d="M804 1915 c-129 -27 -266 -120 -295 -199 -12 -32 -17 -36 -50 -36
-122 0 -219 -100 -219 -227 0 -50 -2 -53 -35 -69 -70 -33 -135 -147 -135 -235
0 -78 48 -152 123 -190 48 -25 161 -53 302 -75 148 -23 472 -23 650 0 343 44
481 109 556 261 40 82 38 149 -7 222 -55 89 -111 114 -353 157 -65 12 -92 22
-123 46 -49 40 -81 53 -220 90 -125 34 -187 65 -208 104 -17 32 -6 58 46 116
20 22 35 42 33 44 -2 2 -31 -2 -65 -9z m-36 -81 l-23 -45 20 -37 c29 -53 94
-87 230 -123 192 -50 220 -70 213 -150 -9 -92 -96 -179 -211 -214 -113 -34
-353 -46 -459 -24 -105 23 -197 85 -245 166 -21 36 -24 51 -19 86 14 86 78
146 174 162 41 7 42 6 43 -22 2 -93 94 -189 172 -181 30 4 30 5 10 14 -26 11
-113 172 -113 208 0 47 40 116 84 144 37 23 120 60 138 62 4 0 -2 -21 -14 -46z
m707 -364 c68 -13 151 -54 172 -86 12 -19 11 -28 -7 -77 -37 -98 -98 -160
-220 -221 -173 -87 -297 -111 -595 -111 -253 0 -344 13 -542 76 -76 25 -102
38 -140 74 -39 38 -45 48 -39 72 13 53 53 117 94 151 l41 34 15 -36 c53 -128
191 -202 422 -227 238 -25 458 29 573 143 65 64 76 113 46 198 -8 23 -15 43
-15 45 0 1 30 -4 68 -11 37 -7 94 -18 127 -24z"/>
</g>
</svg>
